<svg width="800" height="350" viewBox="0 0 800 350" fill="none" xmlns="http://www.w3.org/2000/svg">
<rect width="800" height="350" fill="#1E1E1E"/>
<rect width="800" height="350" fill="black"/>
<path d="M286.992 199H286.16L291.728 154.2H293.84L307.28 195.608L320.656 154.2H322.768L328.336 199H323.024L318.608 163.16L307.024 199H302.992L291.28 163.608L286.992 199Z" fill="white"/>
<path d="M338.728 198.256C334.248 198.256 330.6 196.976 327.784 194.416C324.968 191.856 323.56 187.909 323.56 182.576C323.56 177.243 325.011 173.104 327.912 170.16C330.856 167.216 334.568 165.744 339.048 165.744C343.571 165.744 347.24 167.024 350.056 169.584C352.872 172.144 354.28 176.091 354.28 181.424C354.28 186.757 352.808 190.896 349.864 193.84C346.963 196.784 343.251 198.256 338.728 198.256ZM339.176 166.256C335.933 166.256 333.245 167.707 331.112 170.608C328.979 173.467 327.912 177.477 327.912 182.64C327.912 187.76 328.893 191.557 330.856 194.032C332.819 196.507 335.421 197.744 338.664 197.744C341.907 197.744 344.595 196.315 346.728 193.456C348.861 190.555 349.928 186.544 349.928 181.424C349.928 176.261 348.947 172.443 346.984 169.968C345.021 167.493 342.419 166.256 339.176 166.256Z" fill="white"/>
<path d="M377.12 198C375.371 198 374.027 197.616 373.088 196.848C372.192 196.08 371.723 195.312 371.68 194.544L371.616 193.456V173.36C371.616 169.989 370.741 167.835 368.992 166.896C368.096 166.469 366.987 166.256 365.664 166.256C362.933 166.256 360.48 167.344 358.304 169.52C356.128 171.653 355.04 173.573 355.04 175.28V198H350.56V166H355.04V173.296C355.765 171.461 357.109 169.755 359.072 168.176C361.035 166.555 363.189 165.744 365.536 165.744C367.883 165.744 369.781 165.979 371.232 166.448C372.725 166.875 373.813 167.493 374.496 168.304C375.563 169.627 376.096 171.333 376.096 173.424V193.456C376.096 194.693 376.331 195.653 376.8 196.336C377.312 196.976 377.824 197.317 378.336 197.36L379.04 197.488H381.024V198H377.12Z" fill="white"/>
<path d="M398.992 198C396.091 198 394.107 197.445 393.04 196.336C392.059 195.397 391.568 194.587 391.568 193.904V192.56C389.477 196.357 386.128 198.256 381.52 198.256C376.144 198.256 373.093 195.824 372.368 190.96C372.283 190.448 372.24 189.936 372.24 189.424C372.24 188.869 372.325 188.272 372.496 187.632C372.667 186.992 373.157 186.288 373.968 185.52C375.589 183.984 379.152 183.045 384.656 182.704C386.021 182.576 387.28 182.512 388.432 182.512C389.584 182.512 390.629 182.555 391.568 182.64V172.016C391.483 171.973 391.483 171.781 391.568 171.44C391.653 171.056 391.568 170.587 391.312 170.032C391.099 169.435 390.8 168.859 390.416 168.304C390.032 167.749 389.349 167.28 388.368 166.896C387.387 166.469 386.107 166.256 384.528 166.256C382.949 166.256 381.093 166.555 378.96 167.152C376.869 167.707 375.333 168.261 374.352 168.816L374.096 168.368C377.893 166.619 381.755 165.744 385.68 165.744C390.075 165.744 392.976 166.533 394.384 168.112C395.493 169.349 396.048 170.651 396.048 172.016V193.456C396.048 194.693 396.283 195.653 396.752 196.336C397.264 196.976 397.776 197.317 398.288 197.36L398.992 197.488H400.976V198H398.992ZM382.544 197.744C384.805 197.744 386.832 196.976 388.624 195.44C390.459 193.861 391.44 192.347 391.568 190.896V183.152C390.416 183.067 389.243 183.024 388.048 183.024C386.896 183.024 385.744 183.088 384.592 183.216C381.349 183.6 379.237 184.325 378.256 185.392C377.275 186.459 376.784 187.931 376.784 189.808C376.784 190.149 376.805 190.533 376.848 190.96C377.232 195.483 379.131 197.744 382.544 197.744Z" fill="white"/>
<path d="M407.784 168.752V167.408C405.864 168.176 404.115 169.733 402.536 172.08C400.957 174.384 400.125 176.56 400.04 178.608V198H395.56V166H400.04V176.176C400.723 173.701 402.024 171.376 403.944 169.2C405.864 166.981 408.04 165.829 410.472 165.744H410.728C411.581 165.744 412.285 166.043 412.84 166.64C413.437 167.195 413.736 167.899 413.736 168.752C413.736 169.605 413.437 170.309 412.84 170.864C412.285 171.419 411.581 171.696 410.728 171.696C409.875 171.696 409.171 171.419 408.616 170.864C408.061 170.309 407.784 169.605 407.784 168.752Z" fill="white"/>
<path d="M418.536 166.256C415.507 166.256 412.968 167.707 410.92 170.608C408.915 173.509 407.912 177.52 407.912 182.64C407.912 187.76 408.829 191.557 410.664 194.032C412.541 196.507 414.995 197.744 418.024 197.744C421.821 197.744 425.192 197.104 428.136 195.824L428.328 196.272C425.299 197.595 421.757 198.256 417.704 198.256C413.651 198.256 410.28 196.976 407.592 194.416C404.904 191.856 403.56 187.909 403.56 182.576C403.56 177.243 404.968 173.104 407.784 170.16C410.6 167.216 414.184 165.744 418.536 165.744C420.968 165.744 423.208 166.299 425.256 167.408C427.347 168.517 428.883 170.203 429.864 172.464H425.768C425.128 170.373 424.147 168.816 422.824 167.792C421.544 166.768 420.115 166.256 418.536 166.256Z" fill="white"/>
<path d="M456.44 198C454.691 198 453.347 197.616 452.408 196.848C451.512 196.08 451.043 195.312 451 194.544L450.936 193.456V173.36C450.936 169.989 450.04 167.835 448.248 166.896C447.395 166.469 446.307 166.256 444.984 166.256C442.339 166.256 439.949 167.344 437.816 169.52C435.725 171.653 434.68 173.573 434.68 175.28V198H430.2V150.064H434.68V173.296C435.363 171.461 436.664 169.755 438.584 168.176C440.504 166.555 442.659 165.744 445.048 165.744C449.187 165.744 451.939 166.469 453.304 167.92C454.712 169.328 455.416 171.163 455.416 173.424V193.456C455.416 194.693 455.651 195.653 456.12 196.336C456.632 196.976 457.123 197.317 457.592 197.36L458.36 197.488H460.344V198H456.44Z" fill="white"/>
</svg>
