<svg width="186" height="57" viewBox="0 0 186 57" fill="none" xmlns="http://www.w3.org/2000/svg">
<g filter="url(#filter0_d_19_5)">
<path d="M4.83197 47.936H3.99997L9.56797 3.136H11.68L25.12 44.544L38.496 3.136H40.608L46.176 47.936H40.864L36.448 12.096L24.864 47.936H20.832L9.11997 12.544L4.83197 47.936ZM58.1705 48.192C53.6905 48.192 50.0425 46.912 47.2265 44.352C44.4105 41.792 43.0025 37.8453 43.0025 32.512C43.0025 27.1787 44.4531 23.04 47.3545 20.096C50.2985 17.152 54.0105 15.68 58.4905 15.68C63.0131 15.68 66.6825 16.96 69.4985 19.52C72.3145 22.08 73.7225 26.0267 73.7225 31.36C73.7225 36.6933 72.2505 40.832 69.3065 43.776C66.4051 46.72 62.6931 48.192 58.1705 48.192ZM58.6185 16.192C55.3758 16.192 52.6878 17.6427 50.5545 20.544C48.4211 23.4027 47.3545 27.4133 47.3545 32.576C47.3545 37.696 48.3358 41.4933 50.2985 43.968C52.2611 46.4427 54.8638 47.68 58.1065 47.68C61.3491 47.68 64.0371 46.2507 66.1705 43.392C68.3038 40.4907 69.3705 36.48 69.3705 31.36C69.3705 26.1973 68.3891 22.3787 66.4265 19.904C64.4638 17.4293 61.8611 16.192 58.6185 16.192ZM95.165 47.936C93.4156 47.936 92.0716 47.552 91.133 46.784C90.237 46.016 89.7676 45.248 89.725 44.48L89.661 43.392V23.296C89.661 19.9253 88.7863 17.7707 87.037 16.832C86.141 16.4053 85.0316 16.192 83.709 16.192C80.9783 16.192 78.525 17.28 76.349 19.456C74.173 21.5893 73.085 23.5093 73.085 25.216V47.936H68.605V15.936H73.085V23.232C73.8103 21.3973 75.1543 19.6907 77.117 18.112C79.0796 16.4907 81.2343 15.68 83.581 15.68C85.9276 15.68 87.8263 15.9147 89.277 16.384C90.7703 16.8107 91.8583 17.4293 92.541 18.24C93.6076 19.5627 94.141 21.2693 94.141 23.36V43.392C94.141 44.6293 94.3756 45.5893 94.845 46.272C95.357 46.912 95.869 47.2533 96.381 47.296L97.085 47.424H99.069V47.936H95.165ZM119.764 47.936C116.863 47.936 114.879 47.3813 113.812 46.272C112.831 45.3333 112.34 44.5227 112.34 43.84V42.496C110.25 46.2933 106.9 48.192 102.292 48.192C96.9165 48.192 93.8658 45.76 93.1405 40.896C93.0551 40.384 93.0125 39.872 93.0125 39.36C93.0125 38.8053 93.0978 38.208 93.2685 37.568C93.4391 36.928 93.9298 36.224 94.7405 35.456C96.3618 33.92 99.9245 32.9813 105.428 32.64C106.794 32.512 108.052 32.448 109.204 32.448C110.356 32.448 111.402 32.4907 112.34 32.576V21.952C112.255 21.9093 112.255 21.7173 112.34 21.376C112.426 20.992 112.34 20.5227 112.084 19.968C111.871 19.3707 111.572 18.7947 111.188 18.24C110.804 17.6853 110.122 17.216 109.14 16.832C108.159 16.4053 106.879 16.192 105.3 16.192C103.722 16.192 101.866 16.4907 99.7325 17.088C97.6418 17.6427 96.1058 18.1973 95.1245 18.752L94.8685 18.304C98.6658 16.5547 102.527 15.68 106.452 15.68C110.847 15.68 113.748 16.4693 115.156 18.048C116.266 19.2853 116.82 20.5867 116.82 21.952V43.392C116.82 44.6293 117.055 45.5893 117.524 46.272C118.036 46.912 118.548 47.2533 119.06 47.296L119.764 47.424H121.748V47.936H119.764ZM103.316 47.68C105.578 47.68 107.604 46.912 109.396 45.376C111.231 43.7973 112.212 42.2827 112.34 40.832V33.088C111.188 33.0027 110.015 32.96 108.82 32.96C107.668 32.96 106.516 33.024 105.364 33.152C102.122 33.536 100.01 34.2613 99.0285 35.328C98.0471 36.3947 97.5565 37.8667 97.5565 39.744C97.5565 40.0853 97.5778 40.4693 97.6205 40.896C98.0045 45.4187 99.9031 47.68 103.316 47.68ZM128.534 18.688V17.344C126.614 18.112 124.865 19.6693 123.286 22.016C121.707 24.32 120.875 26.496 120.79 28.544V47.936H116.31V15.936H120.79V26.112C121.473 23.6373 122.774 21.312 124.694 19.136C126.614 16.9173 128.79 15.7653 131.222 15.68H131.478C132.331 15.68 133.035 15.9787 133.59 16.576C134.187 17.1307 134.486 17.8347 134.486 18.688C134.486 19.5413 134.187 20.2453 133.59 20.8C133.035 21.3547 132.331 21.632 131.478 21.632C130.625 21.632 129.921 21.3547 129.366 20.8C128.811 20.2453 128.534 19.5413 128.534 18.688ZM143.388 16.192C140.359 16.192 137.82 17.6427 135.772 20.544C133.767 23.4453 132.764 27.456 132.764 32.576C132.764 37.696 133.682 41.4933 135.516 43.968C137.394 46.4427 139.847 47.68 142.876 47.68C146.674 47.68 150.044 47.04 152.988 45.76L153.18 46.208C150.151 47.5307 146.61 48.192 142.556 48.192C138.503 48.192 135.132 46.912 132.444 44.352C129.756 41.792 128.412 37.8453 128.412 32.512C128.412 27.1787 129.82 23.04 132.636 20.096C135.452 17.152 139.036 15.68 143.388 15.68C145.82 15.68 148.06 16.2347 150.108 17.344C152.199 18.4533 153.735 20.1387 154.716 22.4H150.62C149.98 20.3093 148.999 18.752 147.676 17.728C146.396 16.704 144.967 16.192 143.388 16.192ZM177.145 47.936C175.396 47.936 174.052 47.552 173.113 46.784C172.217 46.016 171.748 45.248 171.705 44.48L171.641 43.392V23.296C171.641 19.9253 170.745 17.7707 168.953 16.832C168.1 16.4053 167.012 16.192 165.689 16.192C163.044 16.192 160.654 17.28 158.521 19.456C156.43 21.5893 155.385 23.5093 155.385 25.216V47.936H150.905V3.8147e-06H155.385V23.232C156.068 21.3973 157.369 19.6907 159.289 18.112C161.209 16.4907 163.364 15.68 165.753 15.68C169.892 15.68 172.644 16.4053 174.009 17.856C175.417 19.264 176.121 21.0987 176.121 23.36V43.392C176.121 44.6293 176.356 45.5893 176.825 46.272C177.337 46.912 177.828 47.2533 178.297 47.296L179.065 47.424H181.049V47.936H177.145Z" fill="black"/>
</g>
<defs>
<filter id="filter0_d_19_5" x="0" y="0" width="185.049" height="56.192" filterUnits="userSpaceOnUse" color-interpolation-filters="sRGB">
<feFlood flood-opacity="0" result="BackgroundImageFix"/>
<feColorMatrix in="SourceAlpha" type="matrix" values="0 0 0 0 0 0 0 0 0 0 0 0 0 0 0 0 0 0 127 0" result="hardAlpha"/>
<feOffset dy="4"/>
<feGaussianBlur stdDeviation="2"/>
<feComposite in2="hardAlpha" operator="out"/>
<feColorMatrix type="matrix" values="0 0 0 0 0 0 0 0 0 0 0 0 0 0 0 0 0 0 0.25 0"/>
<feBlend mode="normal" in2="BackgroundImageFix" result="effect1_dropShadow_19_5"/>
<feBlend mode="normal" in="SourceGraphic" in2="effect1_dropShadow_19_5" result="shape"/>
</filter>
</defs>
</svg>
