<svg width="141" height="45" viewBox="0 0 141 45" fill="none" xmlns="http://www.w3.org/2000/svg">
<g filter="url(#filter0_d_19_5)">
<path d="M4.624 35.952H4.00001L8.17601 2.352H9.76L19.84 33.408L29.872 2.352H31.456L35.632 35.952H31.648L28.336 9.072L19.648 35.952H16.624L7.84001 9.408L4.624 35.952ZM44.6279 36.144C41.2679 36.144 38.5319 35.184 36.4199 33.264C34.3079 31.344 33.2519 28.384 33.2519 24.384C33.2519 20.384 34.3399 17.28 36.5159 15.072C38.7239 12.864 41.5079 11.76 44.8679 11.76C48.2599 11.76 51.0119 12.72 53.1239 14.64C55.2359 16.56 56.2919 19.52 56.2919 23.52C56.2919 27.52 55.1879 30.624 52.9799 32.832C50.8039 35.04 48.0199 36.144 44.6279 36.144ZM44.9639 12.144C42.5319 12.144 40.5159 13.232 38.9159 15.408C37.3159 17.552 36.5159 20.56 36.5159 24.432C36.5159 28.272 37.2519 31.12 38.7239 32.976C40.1959 34.832 42.1479 35.76 44.5799 35.76C47.0119 35.76 49.0279 34.688 50.6279 32.544C52.2279 30.368 53.0279 27.36 53.0279 23.52C53.0279 19.648 52.2919 16.784 50.8199 14.928C49.3479 13.072 47.3959 12.144 44.9639 12.144ZM72.3738 35.952C71.0618 35.952 70.0538 35.664 69.3498 35.088C68.6778 34.512 68.3258 33.936 68.2938 33.36L68.2458 32.544V17.472C68.2458 14.944 67.5898 13.328 66.2778 12.624C65.6058 12.304 64.7738 12.144 63.7818 12.144C61.7338 12.144 59.8938 12.96 58.2618 14.592C56.6298 16.192 55.8138 17.632 55.8138 18.912V35.952H52.4538V11.952H55.8138V17.424C56.3578 16.048 57.3658 14.768 58.8378 13.584C60.3098 12.368 61.9258 11.76 63.6858 11.76C65.4458 11.76 66.8698 11.936 67.9578 12.288C69.0778 12.608 69.8938 13.072 70.4058 13.68C71.2058 14.672 71.6058 15.952 71.6058 17.52V32.544C71.6058 33.472 71.7818 34.192 72.1338 34.704C72.5178 35.184 72.9018 35.44 73.2858 35.472L73.8138 35.568H75.3018V35.952H72.3738ZM90.8234 35.952C88.6474 35.952 87.1594 35.536 86.3594 34.704C85.6234 34 85.2554 33.392 85.2554 32.88V31.872C83.6874 34.72 81.1754 36.144 77.7194 36.144C73.6874 36.144 71.3994 34.32 70.8554 30.672C70.7914 30.288 70.7594 29.904 70.7594 29.52C70.7594 29.104 70.8234 28.656 70.9514 28.176C71.0794 27.696 71.4474 27.168 72.0554 26.592C73.2714 25.44 75.9434 24.736 80.0714 24.48C81.0954 24.384 82.0394 24.336 82.9034 24.336C83.7674 24.336 84.5514 24.368 85.2554 24.432V16.464C85.1914 16.432 85.1914 16.288 85.2554 16.032C85.3194 15.744 85.2554 15.392 85.0634 14.976C84.9034 14.528 84.6794 14.096 84.3914 13.68C84.1034 13.264 83.5914 12.912 82.8554 12.624C82.1194 12.304 81.1594 12.144 79.9754 12.144C78.7914 12.144 77.3994 12.368 75.7994 12.816C74.2314 13.232 73.0794 13.648 72.3434 14.064L72.1514 13.728C74.9994 12.416 77.8954 11.76 80.8394 11.76C84.1354 11.76 86.3114 12.352 87.3674 13.536C88.1994 14.464 88.6154 15.44 88.6154 16.464V32.544C88.6154 33.472 88.7914 34.192 89.1434 34.704C89.5274 35.184 89.9114 35.44 90.2954 35.472L90.8234 35.568H92.3114V35.952H90.8234ZM78.4874 35.76C80.1834 35.76 81.7034 35.184 83.0474 34.032C84.4234 32.848 85.1594 31.712 85.2554 30.624V24.816C84.3914 24.752 83.5114 24.72 82.6154 24.72C81.7514 24.72 80.8874 24.768 80.0234 24.864C77.5914 25.152 76.0074 25.696 75.2714 26.496C74.5354 27.296 74.1674 28.4 74.1674 29.808C74.1674 30.064 74.1834 30.352 74.2154 30.672C74.5034 34.064 75.9274 35.76 78.4874 35.76ZM97.4005 14.016V13.008C95.9605 13.584 94.6485 14.752 93.4645 16.512C92.2805 18.24 91.6565 19.872 91.5925 21.408V35.952H88.2325V11.952H91.5925V19.584C92.1045 17.728 93.0805 15.984 94.5205 14.352C95.9605 12.688 97.5925 11.824 99.4165 11.76H99.6085C100.249 11.76 100.777 11.984 101.193 12.432C101.641 12.848 101.865 13.376 101.865 14.016C101.865 14.656 101.641 15.184 101.193 15.6C100.777 16.016 100.249 16.224 99.6085 16.224C98.9685 16.224 98.4405 16.016 98.0245 15.6C97.6085 15.184 97.4005 14.656 97.4005 14.016ZM108.541 12.144C106.269 12.144 104.365 13.232 102.829 15.408C101.325 17.584 100.573 20.592 100.573 24.432C100.573 28.272 101.261 31.12 102.637 32.976C104.045 34.832 105.885 35.76 108.157 35.76C111.005 35.76 113.533 35.28 115.741 34.32L115.885 34.656C113.613 35.648 110.957 36.144 107.917 36.144C104.877 36.144 102.349 35.184 100.333 33.264C98.3174 31.344 97.3094 28.384 97.3094 24.384C97.3094 20.384 98.3654 17.28 100.477 15.072C102.589 12.864 105.277 11.76 108.541 11.76C110.365 11.76 112.045 12.176 113.581 13.008C115.149 13.84 116.301 15.104 117.037 16.8H113.965C113.485 15.232 112.749 14.064 111.757 13.296C110.797 12.528 109.725 12.144 108.541 12.144ZM133.859 35.952C132.547 35.952 131.539 35.664 130.835 35.088C130.163 34.512 129.811 33.936 129.779 33.36L129.731 32.544V17.472C129.731 14.944 129.059 13.328 127.715 12.624C127.075 12.304 126.259 12.144 125.267 12.144C123.283 12.144 121.491 12.96 119.891 14.592C118.323 16.192 117.539 17.632 117.539 18.912V35.952H114.179V2.86102e-06H117.539V17.424C118.051 16.048 119.027 14.768 120.467 13.584C121.907 12.368 123.523 11.76 125.315 11.76C128.419 11.76 130.483 12.304 131.507 13.392C132.563 14.448 133.091 15.824 133.091 17.52V32.544C133.091 33.472 133.267 34.192 133.619 34.704C134.003 35.184 134.371 35.44 134.723 35.472L135.299 35.568H136.787V35.952H133.859Z" fill="black"/>
</g>
<defs>
<filter id="filter0_d_19_5" x="0" y="0" width="140.787" height="44.144" filterUnits="userSpaceOnUse" color-interpolation-filters="sRGB">
<feFlood flood-opacity="0" result="BackgroundImageFix"/>
<feColorMatrix in="SourceAlpha" type="matrix" values="0 0 0 0 0 0 0 0 0 0 0 0 0 0 0 0 0 0 127 0" result="hardAlpha"/>
<feOffset dy="4"/>
<feGaussianBlur stdDeviation="2"/>
<feComposite in2="hardAlpha" operator="out"/>
<feColorMatrix type="matrix" values="0 0 0 0 0 0 0 0 0 0 0 0 0 0 0 0 0 0 0.25 0"/>
<feBlend mode="normal" in2="BackgroundImageFix" result="effect1_dropShadow_19_5"/>
<feBlend mode="normal" in="SourceGraphic" in2="effect1_dropShadow_19_5" result="shape"/>
</filter>
</defs>
</svg>
